<svg width="220" height="88" viewBox="0 0 220 88" fill="none" xmlns="http://www.w3.org/2000/svg">
<path d="M23.3294 74.7917H17.5543L15.896 69.5311H7.4334L5.77518 74.7917H0L8.63418 51.1191H14.9812L23.3294 74.7917ZM14.6381 65.4141L12.1222 57.4661C11.9506 56.8943 11.7791 56.151 11.7219 55.3505H11.6075C11.5504 56.0366 11.436 56.7228 11.2073 57.4089L8.63418 65.4141H14.6381Z" fill="#333333"/>
<path d="M41.2839 57.8663L34.4223 76.1067C32.7641 80.5095 30.3054 82.6824 26.9889 82.6824C25.731 82.6824 24.7017 82.5108 23.844 82.2249V78.0508C24.5302 78.4511 25.2735 78.6798 26.1312 78.6798C27.4464 78.6798 28.4184 78.0508 28.933 76.7928L29.8479 74.6772L22.9863 57.8091H28.7615L31.9064 68.1015C32.0779 68.7305 32.2495 69.4738 32.3638 70.3887H32.421C32.5354 69.7597 32.7069 69.0164 32.9928 68.1587L36.1949 57.8663H41.2839Z" fill="#333333"/>
<path d="M51.2903 75.1916C48.4885 75.1916 46.2585 74.391 44.6574 72.8472C43.0564 71.2461 42.2559 69.1305 42.2559 66.443C42.2559 63.6412 43.1136 61.4684 44.7718 59.8673C46.43 58.2663 48.7172 57.5229 51.5762 57.5229C54.378 57.5229 56.608 58.3235 58.1519 59.8673C59.7529 61.4684 60.5534 63.5268 60.5534 66.1571C60.5534 68.9589 59.7529 71.189 58.0947 72.79C56.3793 74.391 54.1493 75.1916 51.2903 75.1916ZM51.4047 61.4684C50.1467 61.4684 49.2318 61.8686 48.5457 62.7263C47.8595 63.584 47.5164 64.7848 47.5164 66.3287C47.5164 69.5879 48.8316 71.189 51.4618 71.189C53.9778 71.189 55.2357 69.5307 55.2357 66.2143C55.1785 63.0122 53.9206 61.4684 51.4047 61.4684Z" fill="#333333"/>
<path d="M69.0735 74.7914H63.8701V49.7466H69.0735V74.7914Z" fill="#333333"/>
<path d="M91.0879 65.2998C91.0879 71.9326 88.1717 75.1919 82.3966 75.1919C76.8501 75.1919 74.1055 71.9898 74.1055 65.6429V51.1191H76.2783V65.4713C76.2783 68.0444 76.7929 69.9885 77.8222 71.3037C78.8514 72.6188 80.5096 73.2478 82.6825 73.2478C86.7994 73.2478 88.9151 70.7319 88.9151 65.7V51.1191H91.0879V65.2998Z" fill="#333333"/>
<path d="M107.842 74.048C106.584 74.7914 105.04 75.1916 103.267 75.1916C102.066 75.1916 100.98 75.0201 100.008 74.5626C99.0359 74.1052 98.2354 73.5334 97.5493 72.7901C96.8631 72.0467 96.3485 71.1318 96.0054 70.1026C95.6623 69.0734 95.4336 67.9298 95.4336 66.729C95.4336 65.471 95.6051 64.2702 96.0054 63.1266C96.4057 61.983 96.9775 61.011 97.6636 60.2105C98.3498 59.4099 99.3218 58.7238 100.351 58.2092C101.437 57.7517 102.638 57.4658 104.011 57.4658C105.383 57.4658 106.698 57.7517 107.842 58.2663V60.4964C106.584 59.6958 105.269 59.2956 103.839 59.2956C102.81 59.2956 101.952 59.4671 101.152 59.8674C100.351 60.2676 99.7221 60.7823 99.2075 61.4112C98.6929 62.0402 98.2926 62.8407 98.0067 63.6984C97.7208 64.5561 97.6064 65.5282 97.6064 66.5003C97.6064 67.4151 97.7208 68.2728 97.9495 69.0734C98.1782 69.8739 98.5213 70.6172 99.0359 71.2462C99.5506 71.8752 100.122 72.3898 100.866 72.7329C101.609 73.076 102.467 73.3047 103.496 73.3047C105.097 73.3047 106.527 72.8472 107.784 71.8752V74.048H107.842Z" fill="#333333"/>
<path d="M123.28 74.7914V64.8421C123.28 62.9552 122.937 61.5828 122.251 60.668C121.565 59.7531 120.478 59.2956 119.049 59.2956C118.363 59.2956 117.734 59.41 117.105 59.6959C116.476 59.9818 115.961 60.3821 115.504 60.8967C115.046 61.4113 114.646 62.0403 114.417 62.7836C114.131 63.527 114.017 64.3847 114.017 65.2995V74.7342H111.901V49.7466H114.017V60.7823H114.074C115.389 58.5523 117.276 57.4659 119.735 57.4659C121.622 57.4659 123.051 58.0377 123.966 59.1813C124.938 60.3249 125.396 62.0403 125.396 64.2703V74.7342H123.28V74.7914Z" fill="#333333"/>
<path d="M141.52 74.7915V71.9325H141.463C140.32 74.1053 138.547 75.1917 136.146 75.1917C132.143 75.1917 130.142 72.733 130.142 67.8155V57.8662H132.257V67.4153C132.257 69.4166 132.6 70.9604 133.344 71.9325C134.087 72.9045 135.173 73.362 136.66 73.362C137.403 73.362 138.032 73.2476 138.661 72.9617C139.233 72.6758 139.805 72.2756 140.205 71.7609C140.663 71.2463 141.006 70.6174 141.235 69.9312C141.463 69.245 141.578 68.4445 141.578 67.5296V57.8662H143.693V74.7915H141.52Z" fill="#333333"/>
<path d="M160.504 74.7914V65.0708C160.504 61.2397 159.132 59.3528 156.33 59.3528C155.587 59.3528 154.901 59.5243 154.272 59.8102C153.643 60.0961 153.128 60.4964 152.671 61.011C152.213 61.5256 151.87 62.1546 151.584 62.8407C151.298 63.5269 151.184 64.3274 151.184 65.1279V74.7914H149.068V57.8661H151.184V60.7823H151.241C152.499 58.5522 154.386 57.4658 156.902 57.4658C158.732 57.4658 160.161 58.0376 161.133 59.2384C162.105 60.4392 162.563 62.1546 162.563 64.4418V74.7342H160.504V74.7914Z" fill="#333333"/>
<path d="M79.5377 86.2847H78.9659V85.7129C78.68 86.1703 78.3369 86.399 77.8223 86.399C77.4792 86.399 77.1362 86.2847 76.9646 86.1131C76.7359 85.9416 76.6787 85.6557 76.6787 85.3126C76.6787 84.6265 77.079 84.2262 77.8795 84.1118L78.9659 83.9403C78.9659 83.3113 78.7372 82.9682 78.2226 82.9682C77.7651 82.9682 77.3649 83.1398 77.0218 83.4257V82.7967C77.3649 82.568 77.8223 82.4536 78.2798 82.4536C79.1375 82.4536 79.5949 82.9111 79.5949 83.8259V86.2847H79.5377ZM78.9087 84.3977L77.9938 84.5121C77.7079 84.5693 77.5364 84.6265 77.3649 84.7408C77.2505 84.8552 77.1361 85.0267 77.1361 85.2554C77.1361 85.427 77.1933 85.5985 77.3077 85.7129C77.422 85.8272 77.5936 85.8844 77.8223 85.8844C78.1082 85.8844 78.3369 85.7701 78.5657 85.5985C78.7372 85.3698 78.8516 85.1411 78.8516 84.798V84.3977H78.9087Z" fill="#333333"/>
<path d="M83.5974 82.5679L81.882 86.8564C81.5961 87.5997 81.1386 88 80.624 88C80.4525 88 80.3381 88 80.2237 87.9428V87.4282C80.3381 87.4853 80.4524 87.4854 80.5668 87.4854C80.8527 87.4854 81.0814 87.3138 81.253 86.9707L81.5389 86.2846L80.1094 82.5679H80.7955L81.8248 85.4269C81.8248 85.4841 81.882 85.5412 81.882 85.7128C81.882 85.6556 81.9391 85.5412 81.9391 85.4269L82.9684 82.5679H83.5974Z" fill="#333333"/>
<path d="M85.7702 86.3419C85.1984 86.3419 84.7981 86.1703 84.455 85.8272C84.112 85.4842 83.9404 85.0267 83.9404 84.4549C83.9404 83.8259 84.112 83.3685 84.455 82.9682C84.7981 82.6252 85.2556 82.4536 85.8274 82.4536C86.3992 82.4536 86.7994 82.6252 87.1425 82.9682C87.4856 83.3113 87.5999 83.7688 87.5999 84.3977C87.5999 84.9695 87.4284 85.4842 87.0853 85.8272C86.7422 86.1703 86.2848 86.3419 85.7702 86.3419ZM85.7702 82.9682C85.3699 82.9682 85.084 83.0826 84.8553 83.3685C84.6266 83.6544 84.5122 83.9975 84.5122 84.4549C84.5122 84.9124 84.6266 85.2554 84.8553 85.4842C85.084 85.7129 85.3699 85.8844 85.7702 85.8844C86.1704 85.8844 86.4563 85.7701 86.6851 85.4842C86.9138 85.2554 86.971 84.8552 86.971 84.3977C86.971 83.9403 86.8566 83.5972 86.6851 83.3113C86.4563 83.0826 86.1704 82.9682 85.7702 82.9682Z" fill="#333333"/>
<path d="M89.1441 86.2847H88.5723V80.7954H89.1441V86.2847Z" fill="#333333"/>
<path d="M90.9165 86.2847H90.3447V80.7954H90.9165V86.2847Z" fill="#333333"/>
<path d="M94.8043 86.2847H94.2325V85.7129C93.9466 86.1703 93.6035 86.399 93.0889 86.399C92.7458 86.399 92.4028 86.2847 92.2312 86.1131C92.0025 85.9416 91.9453 85.6557 91.9453 85.3126C91.9453 84.6265 92.3456 84.2262 93.1461 84.1118L94.2325 83.9403C94.2325 83.3113 94.0038 82.9682 93.4892 82.9682C93.0317 82.9682 92.6315 83.1398 92.2884 83.4257V82.7967C92.6315 82.568 93.0889 82.4536 93.5463 82.4536C94.404 82.4536 94.8615 82.9111 94.8615 83.8259V86.2847H94.8043ZM94.2325 84.3977L93.3176 84.5121C93.0317 84.5693 92.8602 84.6265 92.6887 84.7408C92.5743 84.8552 92.4599 85.0267 92.4599 85.2554C92.4599 85.427 92.5171 85.5985 92.6315 85.7129C92.7458 85.8272 92.9174 85.8844 93.1461 85.8844C93.432 85.8844 93.6607 85.7701 93.8894 85.5985C94.061 85.3698 94.1753 85.1411 94.1753 84.798V84.3977H94.2325Z" fill="#333333"/>
<path d="M97.8928 83.1398C97.7784 83.0826 97.6641 83.0255 97.4354 83.0255C97.2066 83.0255 96.9779 83.1398 96.8064 83.3685C96.6348 83.5973 96.5777 83.9403 96.5777 84.3406V86.2276H96.0059V82.5108H96.5777V83.2542C96.6348 82.9683 96.8064 82.7967 96.9779 82.6252C97.1495 82.4537 97.321 82.3965 97.5497 82.3965C97.7213 82.3965 97.8356 82.3965 97.8928 82.4537V83.1398Z" fill="#333333"/>
<path d="M103.553 86.2846H102.981V85.7128C102.752 86.1702 102.352 86.3989 101.838 86.3989C100.98 86.3989 100.522 85.8843 100.522 84.7979V82.5679H101.094V84.6835C101.094 85.4841 101.38 85.8843 102.009 85.8843C102.295 85.8843 102.524 85.77 102.752 85.5412C102.924 85.3125 103.038 85.0266 103.038 84.6835V82.5679H103.61V86.2846H103.553Z" fill="#333333"/>
<path d="M107.27 86.1131C106.984 86.2846 106.641 86.399 106.24 86.399C105.726 86.399 105.268 86.2274 104.982 85.8844C104.639 85.5413 104.468 85.0838 104.468 84.5692C104.468 83.9402 104.639 83.4828 104.982 83.0825C105.325 82.6823 105.783 82.5107 106.412 82.5107C106.755 82.5107 107.041 82.5679 107.27 82.6823V83.3113C106.984 83.1397 106.698 83.0254 106.412 83.0254C106.012 83.0254 105.726 83.1397 105.497 83.4256C105.268 83.7115 105.154 84.0546 105.154 84.512C105.154 84.9695 105.268 85.3126 105.497 85.5413C105.726 85.77 106.012 85.9415 106.412 85.9415C106.755 85.9415 107.041 85.8272 107.327 85.5985V86.1131H107.27Z" fill="#333333"/>
<path d="M111.273 86.2846H110.701V84.169C110.701 83.3685 110.415 83.0254 109.843 83.0254C109.557 83.0254 109.329 83.1397 109.1 83.3685C108.928 83.5972 108.814 83.8831 108.814 84.2262V86.3418H108.242V80.8525H108.814V83.2541C109.1 82.7967 109.5 82.5679 110.015 82.5679C110.872 82.5679 111.273 83.0826 111.273 84.0546V86.2846Z" fill="#333333"/>
<path d="M115.39 86.2846H114.818V85.7128C114.589 86.1702 114.189 86.3989 113.675 86.3989C112.817 86.3989 112.359 85.8843 112.359 84.7979V82.5679H112.931V84.6835C112.931 85.4841 113.217 85.8843 113.846 85.8843C114.132 85.8843 114.361 85.77 114.589 85.5412C114.761 85.3125 114.875 85.0266 114.875 84.6835V82.5679H115.447V86.2846H115.39Z" fill="#333333"/>
<path d="M119.678 86.2846H119.106V84.169C119.106 83.3684 118.82 82.9682 118.249 82.9682C117.963 82.9682 117.677 83.0825 117.505 83.3113C117.334 83.54 117.219 83.8259 117.219 84.169V86.2846H116.647V82.5679H117.219V83.1969C117.505 82.7395 117.905 82.5107 118.42 82.5107C118.82 82.5107 119.163 82.6251 119.335 82.911C119.506 83.1969 119.678 83.54 119.678 84.0546V86.2846Z" fill="#333333"/>
<path d="M128.084 86.2847H127.512V84.169C127.512 83.7688 127.455 83.4829 127.34 83.2541C127.226 83.0254 126.997 82.9682 126.711 82.9682C126.483 82.9682 126.254 83.0826 126.082 83.3113C125.911 83.54 125.797 83.8259 125.797 84.169V86.2847H125.225V84.0547C125.225 83.3113 124.939 82.9682 124.367 82.9682C124.081 82.9682 123.91 83.0826 123.738 83.3113C123.566 83.54 123.509 83.8259 123.509 84.169V86.2847H122.938V82.568H123.509V83.1398C123.795 82.6823 124.138 82.4536 124.653 82.4536C124.882 82.4536 125.11 82.5108 125.339 82.6823C125.511 82.7967 125.682 83.0254 125.739 83.2541C126.025 82.7395 126.425 82.5108 126.997 82.5108C127.798 82.5108 128.198 83.0254 128.198 83.9975V86.2847H128.084Z" fill="#333333"/>
<path d="M131.915 86.2847H131.343V85.7129C131.057 86.1703 130.714 86.399 130.199 86.399C129.856 86.399 129.513 86.2847 129.342 86.1131C129.113 85.9416 129.056 85.6557 129.056 85.3126C129.056 84.6265 129.456 84.2262 130.256 84.1118L131.343 83.9403C131.343 83.3113 131.114 82.9682 130.6 82.9682C130.142 82.9682 129.742 83.1398 129.399 83.4257V82.7967C129.742 82.568 130.199 82.4536 130.657 82.4536C131.514 82.4536 131.972 82.9111 131.972 83.8259V86.2847H131.915ZM131.286 84.3977L130.371 84.5121C130.085 84.5693 129.913 84.6265 129.742 84.7408C129.627 84.8552 129.513 85.0267 129.513 85.2554C129.513 85.427 129.57 85.5985 129.685 85.7129C129.799 85.8272 129.971 85.8844 130.199 85.8844C130.485 85.8844 130.714 85.7701 130.943 85.5985C131.114 85.3698 131.229 85.1411 131.229 84.798V84.3977H131.286Z" fill="#333333"/>
<path d="M135.746 82.5679L134.488 84.4548L135.688 86.2846H135.002L134.259 85.0838C134.202 85.0266 134.145 84.9123 134.087 84.7979C134.087 84.7979 134.03 84.9123 133.916 85.0838L133.172 86.2846H132.486L133.744 84.4548L132.544 82.5679H133.23L133.973 83.8258C134.03 83.9402 134.087 83.9974 134.145 84.1117L135.059 82.5679H135.746Z" fill="#333333"/>
<path d="M136.203 86.1131V85.4842C136.546 85.7129 136.889 85.8272 137.29 85.8272C137.804 85.8272 138.09 85.6557 138.09 85.3126C138.09 85.1983 138.09 85.1411 138.033 85.0839C137.976 85.0267 137.919 84.9695 137.861 84.9124C137.804 84.8552 137.69 84.798 137.575 84.7408C137.461 84.6836 137.347 84.6265 137.232 84.6265C137.061 84.5693 136.946 84.5121 136.775 84.4549C136.603 84.3977 136.546 84.3406 136.489 84.2262C136.432 84.169 136.317 84.0547 136.317 83.9403C136.26 83.8259 136.26 83.7116 136.26 83.54C136.26 83.3685 136.317 83.197 136.375 83.0826C136.432 82.9682 136.546 82.8539 136.718 82.7395C136.832 82.6252 137.004 82.568 137.175 82.5108C137.347 82.4536 137.518 82.4536 137.69 82.4536C138.033 82.4536 138.319 82.5108 138.547 82.6252V83.2541C138.262 83.0826 137.976 82.9682 137.633 82.9682C137.518 82.9682 137.404 82.9682 137.347 83.0254C137.232 83.0254 137.175 83.0826 137.118 83.1398C137.061 83.197 137.004 83.2541 136.946 83.3113C136.889 83.3685 136.889 83.4257 136.889 83.54C136.889 83.6544 136.889 83.7116 136.946 83.7688C137.004 83.8259 137.061 83.8831 137.118 83.9403C137.175 83.9975 137.29 84.0547 137.347 84.0547C137.461 84.1118 137.575 84.169 137.69 84.169C137.861 84.2262 137.976 84.2834 138.147 84.3406C138.319 84.3977 138.376 84.4549 138.49 84.5693C138.605 84.6264 138.662 84.7408 138.719 84.8552C138.776 84.9695 138.776 85.0839 138.776 85.2554C138.776 85.427 138.719 85.5985 138.662 85.7129C138.605 85.8272 138.49 85.9416 138.319 86.056C138.147 86.1703 138.033 86.2275 137.861 86.2275C137.69 86.2847 137.518 86.2847 137.29 86.2847C136.832 86.3418 136.489 86.2847 136.203 86.1131Z" fill="#333333"/>
<path d="M142.608 86.2846H142.036V85.7128C141.807 86.1702 141.407 86.3989 140.892 86.3989C140.035 86.3989 139.577 85.8843 139.577 84.7979V82.5679H140.149V84.6835C140.149 85.4841 140.435 85.8843 141.064 85.8843C141.35 85.8843 141.578 85.77 141.807 85.5412C141.979 85.3125 142.093 85.0266 142.093 84.6835V82.5679H142.665V86.2846H142.608Z" fill="#333333"/>
<path d="M143.579 86.1131V85.4842C143.922 85.7129 144.265 85.8272 144.666 85.8272C145.18 85.8272 145.466 85.6557 145.466 85.3126C145.466 85.1983 145.466 85.1411 145.409 85.0839C145.352 85.0267 145.294 84.9695 145.237 84.9124C145.18 84.8552 145.066 84.798 144.951 84.7408C144.837 84.6836 144.723 84.6265 144.608 84.6265C144.437 84.5693 144.322 84.5121 144.151 84.4549C143.979 84.3977 143.922 84.3406 143.865 84.2262C143.808 84.169 143.693 84.0547 143.693 83.9403C143.636 83.8259 143.636 83.7116 143.636 83.54C143.636 83.3685 143.693 83.197 143.751 83.0826C143.808 82.9682 143.922 82.8539 144.094 82.7395C144.208 82.6252 144.38 82.568 144.551 82.5108C144.723 82.4536 144.894 82.4536 145.066 82.4536C145.409 82.4536 145.695 82.5108 145.923 82.6252V83.2541C145.638 83.0826 145.352 82.9682 145.009 82.9682C144.894 82.9682 144.78 82.9682 144.723 83.0254C144.608 83.0254 144.551 83.0826 144.494 83.1398C144.437 83.197 144.38 83.2541 144.322 83.3113C144.265 83.3685 144.265 83.4257 144.265 83.54C144.265 83.6544 144.265 83.7116 144.322 83.7688C144.38 83.8259 144.437 83.8831 144.494 83.9403C144.551 83.9975 144.666 84.0547 144.723 84.0547C144.837 84.1118 144.951 84.169 145.066 84.169C145.237 84.2262 145.352 84.2834 145.523 84.3406C145.695 84.3977 145.752 84.4549 145.866 84.5693C145.981 84.6264 146.038 84.7408 146.095 84.8552C146.152 84.9695 146.152 85.0839 146.152 85.2554C146.152 85.427 146.095 85.5985 146.038 85.7129C145.981 85.8272 145.866 85.9416 145.695 86.056C145.523 86.1703 145.409 86.2275 145.237 86.2275C145.066 86.2847 144.894 86.2847 144.666 86.2847C144.151 86.3418 143.865 86.2847 143.579 86.1131Z" fill="#333333"/>
<path d="M149.584 85.7129V86.2276H149.012V80.7383H149.584V83.197C149.869 82.6824 150.327 82.4537 150.841 82.4537C151.299 82.4537 151.699 82.6252 151.985 82.9683C152.271 83.3114 152.385 83.7688 152.385 84.2834C152.385 84.9124 152.214 85.427 151.928 85.7701C151.642 86.1704 151.185 86.3419 150.67 86.3419C150.212 86.3419 149.812 86.1132 149.584 85.7129ZM149.584 84.2263V84.7409C149.584 85.0268 149.698 85.3127 149.869 85.5414C150.041 85.7701 150.327 85.8845 150.613 85.8845C150.956 85.8845 151.242 85.7701 151.47 85.4842C151.699 85.1983 151.756 84.7981 151.756 84.3406C151.756 83.9404 151.642 83.5973 151.47 83.3686C151.299 83.1398 151.013 83.0255 150.67 83.0255C150.327 83.0255 150.041 83.1398 149.812 83.3686C149.584 83.5973 149.584 83.8832 149.584 84.2263Z" fill="#333333"/>
<path d="M153.929 86.2847H153.357V80.7954H153.929V86.2847Z" fill="#333333"/>
<path d="M156.674 86.3419C156.102 86.3419 155.701 86.1703 155.358 85.8272C155.015 85.4842 154.844 85.0267 154.844 84.4549C154.844 83.8259 155.015 83.3685 155.358 82.9682C155.701 82.6252 156.159 82.4536 156.731 82.4536C157.303 82.4536 157.703 82.6252 158.046 82.9682C158.389 83.3113 158.503 83.7688 158.503 84.3977C158.503 84.9695 158.332 85.4842 157.989 85.8272C157.646 86.1703 157.245 86.3419 156.674 86.3419ZM156.731 82.9682C156.33 82.9682 156.045 83.0826 155.816 83.3685C155.587 83.6544 155.473 83.9975 155.473 84.4549C155.473 84.9124 155.587 85.2554 155.816 85.4842C156.045 85.7129 156.33 85.8844 156.731 85.8844C157.131 85.8844 157.417 85.7701 157.646 85.4842C157.874 85.2554 157.931 84.8552 157.931 84.3977C157.931 83.9403 157.817 83.5972 157.646 83.3113C157.417 83.0826 157.131 82.9682 156.731 82.9682Z" fill="#333333"/>
<path d="M162.677 85.9416C162.677 87.314 162.048 88.0001 160.733 88.0001C160.276 88.0001 159.876 87.8858 159.532 87.7142V87.1424C159.933 87.3711 160.333 87.4855 160.733 87.4855C161.648 87.4855 162.106 87.0281 162.106 85.9988V85.5986C161.82 86.056 161.419 86.2847 160.848 86.2847C160.39 86.2847 159.99 86.1132 159.704 85.7701C159.418 85.427 159.304 84.9696 159.304 84.455C159.304 83.826 159.475 83.3114 159.761 82.9683C160.047 82.568 160.504 82.3965 161.019 82.3965C161.534 82.3965 161.877 82.6252 162.106 83.0255V82.5108H162.677V85.9416ZM162.048 84.5693V83.9975C162.048 83.7116 161.934 83.4257 161.762 83.2542C161.591 83.0255 161.305 82.9111 161.019 82.9111C160.676 82.9111 160.39 83.0255 160.161 83.3114C159.933 83.5973 159.876 83.9403 159.876 84.455C159.876 84.8552 159.99 85.1983 160.161 85.427C160.333 85.6557 160.619 85.8273 160.962 85.8273C161.305 85.8273 161.591 85.7129 161.762 85.4842C161.991 85.2555 162.048 84.9696 162.048 84.5693Z" fill="#333333"/>
<path d="M209.014 4.14989C196.606 -4.77019 183.054 4.37861 180.539 6.26555C180.31 6.43709 179.967 6.37991 179.738 6.20837C168.531 -4.65583 144.687 -1.22503 141.599 16.2149C138.683 32.5112 158.238 45.3767 171.161 52.467C178.88 56.6983 179.452 61.4442 179.052 63.9601C178.995 64.3604 179.566 64.5891 179.795 64.246C182.54 60.415 183.283 55.1544 183.112 51.0375C182.883 43.6041 174.706 44.8049 172.533 43.261C170.589 41.8887 172.247 38.3435 172.648 37.6574C172.705 37.6002 172.705 37.4858 172.648 37.4286C171.733 36.0563 172.705 34.7984 172.991 34.4553C173.048 34.3981 173.048 34.3409 172.991 34.2837C172.362 32.8542 173.048 32.454 173.505 31.8822C173.963 31.3104 174.649 30.8529 173.963 30.1096C173.334 29.3663 172.419 28.6229 172.934 27.6509C173.277 26.9075 175.392 26.4501 176.593 25.3065C176.479 25.2493 176.364 25.1921 176.25 25.1349C176.079 25.0206 175.907 24.9062 175.793 24.7347C175.678 24.5631 175.564 24.4488 175.45 24.2772C175.564 24.4488 175.678 24.5631 175.85 24.6775C176.021 24.7919 176.136 24.9062 176.307 24.9634C176.479 25.0206 176.65 25.0778 176.822 25.0778C177.108 24.7347 177.336 24.3344 177.394 23.877C177.737 21.1895 178.366 17.8159 180.081 14.8997C181.797 11.9835 183.798 9.98225 187.629 18.2733C190.717 25.0206 195.119 27.2506 196.72 27.8796C197.064 27.9939 197.178 28.3942 197.064 28.6801C192.546 40.6307 195.863 49.3221 197.178 52.0095C197.407 52.467 197.978 52.6957 198.493 52.4098C209.129 46.5774 214.503 37.543 214.503 37.543C219.592 30.3383 222.737 13.9848 209.014 4.14989Z" fill="url(#paint0_linear_38_11921)"/>
<defs>
<linearGradient id="paint0_linear_38_11921" x1="199.34" y1="78.2298" x2="168.985" y2="-12.1886" gradientUnits="userSpaceOnUse">
<stop offset="0.0137453" stop-color="#E30613"/>
<stop offset="1" stop-color="#E6007E"/>
</linearGradient>
</defs>
</svg>
