<svg width="286" height="115" viewBox="0 0 286 115" fill="none" xmlns="http://www.w3.org/2000/svg">
<g clip-path="url(#clip0_22_8296)">
<path d="M30.4192 97.7384H22.8889L20.7268 90.8638H9.69239L7.53024 97.7384H0L11.2581 66.8027H19.5339L30.4192 97.7384ZM19.0865 85.4837L15.806 75.0971C15.5824 74.3498 15.3587 73.3784 15.2841 72.3323H15.135C15.0605 73.229 14.9114 74.1257 14.6131 75.0224L11.2581 85.4837H19.0865V85.4837Z" fill="white"/>
<path d="M53.8308 75.6206L44.884 99.4575C42.7219 105.211 39.5159 108.051 35.1916 108.051C33.5514 108.051 32.2094 107.827 31.091 107.453V101.998C31.9857 102.521 32.9549 102.82 34.0733 102.82C35.7881 102.82 37.0556 101.998 37.7266 100.354L38.9195 97.5894L29.9727 75.5459H37.5029L41.6035 88.9962C41.8272 89.8182 42.0509 90.7896 42.2 91.9851H42.2745C42.4236 91.1632 42.6473 90.1918 43.0201 89.0709L47.1953 75.6206H53.8308V75.6206Z" fill="white"/>
<path d="M66.8776 98.2615C63.2243 98.2615 60.3166 97.2154 58.229 95.1979C56.1414 93.1056 55.0977 90.3408 55.0977 86.8288C55.0977 83.1673 56.216 80.3278 58.3782 78.2356C60.5403 76.1433 63.5226 75.1719 67.2504 75.1719C70.9037 75.1719 73.8114 76.218 75.8245 78.2356C77.912 80.3278 78.9558 83.0179 78.9558 86.4552C78.9558 90.1166 77.912 93.0309 75.7499 95.1231C73.5132 97.2154 70.6055 98.2615 66.8776 98.2615ZM67.0267 80.3278C65.3865 80.3278 64.1936 80.8509 63.2989 81.9717C62.4042 83.0926 61.9569 84.6618 61.9569 86.6793C61.9569 90.9386 63.6717 93.0309 67.1013 93.0309C70.3818 93.0309 72.0221 90.8639 72.0221 86.5299C71.9475 82.3454 70.3072 80.3278 67.0267 80.3278Z" fill="white"/>
<path d="M90.0659 97.7388H83.2812V65.0098H90.0659V97.7388Z" fill="white"/>
<path d="M118.768 85.3342C118.768 94.0022 114.966 98.2615 107.436 98.2615C100.204 98.2615 96.625 94.0769 96.625 85.7826V66.8027H99.4582V85.5584C99.4582 88.921 100.129 91.4616 101.471 93.1802C102.813 94.8989 104.975 95.7209 107.809 95.7209C113.177 95.7209 115.935 92.433 115.935 85.8573V66.8027H118.768V85.3342V85.3342Z" fill="white"/>
<path d="M140.616 96.7676C138.976 97.739 136.963 98.262 134.652 98.262C133.086 98.262 131.67 98.0379 130.402 97.4401C129.135 96.8423 128.091 96.0951 127.196 95.1236C126.301 94.1522 125.63 92.9567 125.183 91.6116C124.736 90.2666 124.438 88.7721 124.438 87.2029C124.438 85.559 124.661 83.9898 125.183 82.4953C125.705 81.0008 126.451 79.7305 127.345 78.6844C128.24 77.6383 129.507 76.7416 130.849 76.0691C132.266 75.4713 133.832 75.0977 135.621 75.0977C137.41 75.0977 139.125 75.4713 140.616 76.1438V79.058C138.976 78.0119 137.261 77.4888 135.397 77.4888C134.055 77.4888 132.937 77.713 131.893 78.2361C130.849 78.7591 130.029 79.4316 129.358 80.2536C128.687 81.0756 128.165 82.1217 127.793 83.2426C127.42 84.3634 127.271 85.6337 127.271 86.904C127.271 88.0996 127.42 89.2205 127.718 90.2666C128.016 91.3127 128.464 92.2841 129.135 93.1061C129.806 93.9281 130.551 94.6006 131.52 95.0489C132.49 95.4973 133.608 95.7962 134.95 95.7962C137.038 95.7962 138.902 95.1984 140.542 93.9281V96.7676H140.616Z" fill="white"/>
<path d="M160.743 97.7388V84.7369C160.743 82.271 160.296 80.4776 159.401 79.282C158.506 78.0864 157.09 77.4886 155.226 77.4886C154.331 77.4886 153.511 77.6381 152.691 78.0117C151.871 78.3853 151.2 78.9084 150.603 79.5809C150.007 80.2534 149.485 81.0754 149.187 82.0468C148.814 83.0182 148.665 84.1391 148.665 85.3347V97.6641H145.906V65.0098H148.665V79.4315H148.739C150.454 76.5172 152.915 75.0975 156.121 75.0975C158.581 75.0975 160.445 75.8447 161.638 77.3392C162.905 78.8337 163.502 81.0754 163.502 83.9896V97.6641H160.743V97.7388Z" fill="white"/>
<path d="M184.528 97.7384V94.0022H184.454C182.963 96.8417 180.651 98.2614 177.52 98.2614C172.301 98.2614 169.691 95.0483 169.691 88.6221V75.6201H172.45V88.099C172.45 90.7143 172.897 92.7319 173.867 94.0022C174.836 95.2725 176.252 95.8703 178.191 95.8703C179.16 95.8703 179.98 95.7208 180.8 95.3472C181.546 94.9736 182.292 94.4505 182.813 93.778C183.41 93.1055 183.857 92.2835 184.155 91.3869C184.454 90.4902 184.603 89.444 184.603 88.2484V75.6201H187.361V97.7384H184.528Z" fill="white"/>
<path d="M209.282 97.739V85.0359C209.282 80.0294 207.493 77.5635 203.84 77.5635C202.871 77.5635 201.976 77.7877 201.156 78.1613C200.336 78.535 199.665 79.058 199.068 79.7305C198.472 80.403 198.024 81.225 197.652 82.1217C197.279 83.0184 197.13 84.0645 197.13 85.1107V97.739H194.371V75.6207H197.13V79.4316H197.204C198.844 76.5174 201.305 75.0977 204.585 75.0977C206.971 75.0977 208.835 75.8449 210.103 77.4141C211.37 78.9833 211.966 81.225 211.966 84.214V97.6643H209.282V97.739Z" fill="white"/>
<path d="M103.708 112.758H102.963V112.011C102.59 112.609 102.143 112.908 101.472 112.908C101.024 112.908 100.577 112.758 100.353 112.534C100.055 112.31 99.9805 111.936 99.9805 111.488C99.9805 110.591 100.502 110.068 101.546 109.919L102.963 109.695C102.963 108.873 102.665 108.424 101.994 108.424C101.397 108.424 100.875 108.649 100.428 109.022V108.2C100.875 107.901 101.472 107.752 102.068 107.752C103.186 107.752 103.783 108.35 103.783 109.545V112.758H103.708ZM102.888 110.293L101.695 110.442C101.322 110.517 101.099 110.591 100.875 110.741C100.726 110.89 100.577 111.115 100.577 111.413C100.577 111.638 100.651 111.862 100.801 112.011C100.95 112.161 101.173 112.235 101.472 112.235C101.844 112.235 102.143 112.086 102.441 111.862C102.665 111.563 102.814 111.264 102.814 110.816V110.293H102.888Z" fill="white"/>
<path d="M109.001 107.9L106.764 113.505C106.392 114.476 105.795 114.999 105.124 114.999C104.9 114.999 104.751 114.999 104.602 114.924V114.252C104.751 114.327 104.9 114.327 105.05 114.327C105.422 114.327 105.721 114.102 105.944 113.654L106.317 112.757L104.453 107.9H105.348L106.69 111.637C106.69 111.711 106.764 111.786 106.764 112.01C106.764 111.935 106.839 111.786 106.839 111.637L108.181 107.9H109.001Z" fill="white"/>
<path d="M111.835 112.833C111.089 112.833 110.568 112.609 110.12 112.161C109.673 111.712 109.449 111.115 109.449 110.367C109.449 109.545 109.673 108.948 110.12 108.424C110.568 107.976 111.164 107.752 111.91 107.752C112.655 107.752 113.177 107.976 113.624 108.424C114.072 108.873 114.221 109.471 114.221 110.293C114.221 111.04 113.997 111.712 113.55 112.161C113.102 112.609 112.506 112.833 111.835 112.833ZM111.835 108.424C111.313 108.424 110.94 108.574 110.642 108.948C110.344 109.321 110.195 109.769 110.195 110.367C110.195 110.965 110.344 111.413 110.642 111.712C110.94 112.011 111.313 112.235 111.835 112.235C112.357 112.235 112.73 112.086 113.028 111.712C113.326 111.413 113.401 110.89 113.401 110.293C113.401 109.695 113.252 109.246 113.028 108.873C112.73 108.574 112.357 108.424 111.835 108.424Z" fill="white"/>
<path d="M116.234 112.758H115.488V105.585H116.234V112.758Z" fill="white"/>
<path d="M118.546 112.757H117.801V105.584H118.546V112.757Z" fill="white"/>
<path d="M123.615 112.758H122.869V112.011C122.496 112.609 122.049 112.908 121.378 112.908C120.931 112.908 120.483 112.758 120.26 112.534C119.961 112.31 119.887 111.936 119.887 111.488C119.887 110.591 120.409 110.068 121.452 109.919L122.869 109.695C122.869 108.873 122.571 108.424 121.9 108.424C121.303 108.424 120.781 108.649 120.334 109.022V108.2C120.781 107.901 121.378 107.752 121.974 107.752C123.093 107.752 123.689 108.35 123.689 109.545V112.758H123.615ZM122.869 110.293L121.676 110.442C121.303 110.517 121.08 110.591 120.856 110.741C120.707 110.89 120.558 111.115 120.558 111.413C120.558 111.638 120.632 111.862 120.781 112.011C120.931 112.161 121.154 112.235 121.452 112.235C121.825 112.235 122.123 112.086 122.422 111.862C122.645 111.563 122.794 111.264 122.794 110.816V110.293H122.869Z" fill="white"/>
<path d="M127.64 108.648C127.491 108.573 127.342 108.499 127.044 108.499C126.745 108.499 126.447 108.648 126.223 108.947C126 109.246 125.925 109.694 125.925 110.217V112.683H125.18V107.826H125.925V108.798C126 108.424 126.223 108.2 126.447 107.976C126.671 107.751 126.894 107.677 127.193 107.677C127.416 107.677 127.565 107.677 127.64 107.751V108.648V108.648Z" fill="white"/>
<path d="M135.022 112.757H134.276V112.01C133.978 112.608 133.456 112.907 132.785 112.907C131.667 112.907 131.07 112.234 131.07 110.815V107.9H131.816V110.665C131.816 111.711 132.189 112.234 133.009 112.234C133.382 112.234 133.68 112.085 133.978 111.786C134.202 111.487 134.351 111.114 134.351 110.665V107.9H135.096V112.757H135.022Z" fill="white"/>
<path d="M139.868 112.534C139.495 112.758 139.048 112.907 138.526 112.907C137.855 112.907 137.259 112.683 136.886 112.235C136.439 111.787 136.215 111.189 136.215 110.516C136.215 109.694 136.439 109.096 136.886 108.573C137.333 108.05 137.93 107.826 138.75 107.826C139.197 107.826 139.57 107.901 139.868 108.05V108.872C139.495 108.648 139.123 108.499 138.75 108.499C138.228 108.499 137.855 108.648 137.557 109.022C137.259 109.395 137.11 109.844 137.11 110.442C137.11 111.039 137.259 111.488 137.557 111.787C137.855 112.085 138.228 112.31 138.75 112.31C139.197 112.31 139.57 112.16 139.943 111.861V112.534H139.868Z" fill="white"/>
<path d="M145.088 112.758H144.343V109.993C144.343 108.947 143.97 108.499 143.224 108.499C142.852 108.499 142.553 108.648 142.255 108.947C142.031 109.246 141.882 109.62 141.882 110.068V112.833H141.137V105.659H141.882V108.798C142.255 108.2 142.777 107.901 143.448 107.901C144.566 107.901 145.088 108.573 145.088 109.844V112.758V112.758Z" fill="white"/>
<path d="M150.455 112.758H149.71V112.011C149.412 112.609 148.89 112.908 148.219 112.908C147.1 112.908 146.504 112.235 146.504 110.816V107.901H147.249V110.666C147.249 111.712 147.622 112.235 148.442 112.235C148.815 112.235 149.113 112.086 149.412 111.787C149.635 111.488 149.784 111.115 149.784 110.666V107.901H150.53V112.758H150.455Z" fill="white"/>
<path d="M156.045 112.758H155.3V109.993C155.3 108.947 154.927 108.424 154.181 108.424C153.809 108.424 153.436 108.573 153.212 108.872C152.988 109.171 152.839 109.545 152.839 109.993V112.758H152.094V107.901H152.839V108.723C153.212 108.125 153.734 107.826 154.405 107.826C154.927 107.826 155.374 107.976 155.598 108.349C155.822 108.723 156.045 109.171 156.045 109.844V112.758V112.758Z" fill="white"/>
<path d="M167.007 112.758H166.261V109.994C166.261 109.471 166.187 109.097 166.038 108.798C165.889 108.499 165.59 108.424 165.218 108.424C164.919 108.424 164.621 108.574 164.398 108.873C164.174 109.172 164.025 109.545 164.025 109.994V112.758H163.279V109.844C163.279 108.873 162.906 108.424 162.161 108.424C161.788 108.424 161.564 108.574 161.341 108.873C161.117 109.172 161.042 109.545 161.042 109.994V112.758H160.297V107.901H161.042V108.649C161.415 108.051 161.863 107.752 162.534 107.752C162.832 107.752 163.13 107.827 163.428 108.051C163.652 108.2 163.876 108.499 163.95 108.798C164.323 108.126 164.845 107.827 165.59 107.827C166.634 107.827 167.156 108.499 167.156 109.769V112.758H167.007Z" fill="white"/>
<path d="M172.001 112.758H171.256V112.011C170.883 112.609 170.436 112.908 169.765 112.908C169.317 112.908 168.87 112.758 168.646 112.534C168.348 112.31 168.273 111.936 168.273 111.488C168.273 110.591 168.795 110.068 169.839 109.919L171.256 109.695C171.256 108.873 170.957 108.424 170.286 108.424C169.69 108.424 169.168 108.649 168.721 109.022V108.2C169.168 107.901 169.765 107.752 170.361 107.752C171.479 107.752 172.076 108.35 172.076 109.545V112.758H172.001ZM171.181 110.293L169.988 110.442C169.615 110.517 169.392 110.591 169.168 110.741C169.019 110.89 168.87 111.115 168.87 111.413C168.87 111.638 168.944 111.862 169.094 112.011C169.243 112.161 169.466 112.235 169.765 112.235C170.137 112.235 170.436 112.086 170.734 111.862C170.957 111.563 171.107 111.264 171.107 110.816V110.293H171.181Z" fill="white"/>
<path d="M177 107.9L175.359 110.366L176.925 112.757H176.03L175.061 111.188C174.987 111.114 174.912 110.964 174.838 110.815C174.838 110.815 174.763 110.964 174.614 111.188L173.645 112.757H172.75L174.39 110.366L172.825 107.9H173.719L174.688 109.544C174.763 109.694 174.838 109.768 174.912 109.918L176.105 107.9H177Z" fill="white"/>
<path d="M177.594 112.534V111.712C178.041 112.011 178.488 112.161 179.01 112.161C179.681 112.161 180.054 111.936 180.054 111.488C180.054 111.339 180.054 111.264 179.98 111.189C179.905 111.115 179.83 111.04 179.756 110.965C179.681 110.89 179.532 110.816 179.383 110.741C179.234 110.666 179.085 110.591 178.936 110.591C178.712 110.517 178.563 110.442 178.339 110.367C178.116 110.293 178.041 110.218 177.967 110.068C177.892 109.994 177.743 109.844 177.743 109.695C177.668 109.545 177.668 109.396 177.668 109.172C177.668 108.948 177.743 108.723 177.817 108.574C177.892 108.424 178.041 108.275 178.265 108.126C178.414 107.976 178.638 107.901 178.861 107.827C179.085 107.752 179.309 107.752 179.532 107.752C179.98 107.752 180.352 107.827 180.651 107.976V108.798C180.278 108.574 179.905 108.424 179.458 108.424C179.309 108.424 179.159 108.424 179.085 108.499C178.936 108.499 178.861 108.574 178.787 108.649C178.712 108.723 178.638 108.798 178.563 108.873C178.488 108.948 178.488 109.022 178.488 109.172C178.488 109.321 178.488 109.396 178.563 109.471C178.638 109.545 178.712 109.62 178.787 109.695C178.861 109.77 179.01 109.844 179.085 109.844C179.234 109.919 179.383 109.994 179.532 109.994C179.756 110.068 179.905 110.143 180.129 110.218C180.352 110.293 180.427 110.367 180.576 110.517C180.725 110.591 180.8 110.741 180.874 110.89C180.949 111.04 180.949 111.189 180.949 111.413C180.949 111.638 180.874 111.862 180.8 112.011C180.725 112.161 180.576 112.31 180.352 112.46C180.129 112.609 179.98 112.684 179.756 112.684C179.532 112.758 179.309 112.758 179.01 112.758C178.414 112.833 177.967 112.758 177.594 112.534Z" fill="white"/>
<path d="M185.944 112.757H185.198V112.01C184.9 112.608 184.378 112.907 183.707 112.907C182.589 112.907 181.992 112.234 181.992 110.815V107.9H182.738V110.665C182.738 111.711 183.111 112.234 183.931 112.234C184.303 112.234 184.602 112.085 184.9 111.786C185.124 111.487 185.273 111.114 185.273 110.665V107.9H186.018V112.757H185.944Z" fill="white"/>
<path d="M187.211 112.534V111.712C187.658 112.011 188.106 112.161 188.627 112.161C189.299 112.161 189.671 111.936 189.671 111.488C189.671 111.339 189.671 111.264 189.597 111.189C189.522 111.115 189.448 111.04 189.373 110.965C189.299 110.89 189.149 110.816 189 110.741C188.851 110.666 188.702 110.591 188.553 110.591C188.329 110.517 188.18 110.442 187.956 110.367C187.733 110.293 187.658 110.218 187.584 110.068C187.509 109.994 187.36 109.844 187.36 109.695C187.285 109.545 187.285 109.396 187.285 109.172C187.285 108.948 187.36 108.723 187.435 108.574C187.509 108.424 187.658 108.275 187.882 108.126C188.031 107.976 188.255 107.901 188.478 107.827C188.702 107.752 188.926 107.752 189.149 107.752C189.597 107.752 189.97 107.827 190.268 107.976V108.798C189.895 108.574 189.522 108.424 189.075 108.424C188.926 108.424 188.777 108.424 188.702 108.499C188.553 108.499 188.478 108.574 188.404 108.649C188.329 108.723 188.255 108.798 188.18 108.873C188.106 108.948 188.106 109.022 188.106 109.172C188.106 109.321 188.106 109.396 188.18 109.471C188.255 109.545 188.329 109.62 188.404 109.695C188.478 109.77 188.628 109.844 188.702 109.844C188.851 109.919 189 109.994 189.149 109.994C189.373 110.068 189.522 110.143 189.746 110.218C189.97 110.293 190.044 110.367 190.193 110.517C190.342 110.591 190.417 110.741 190.491 110.89C190.566 111.04 190.566 111.189 190.566 111.413C190.566 111.638 190.491 111.862 190.417 112.011C190.342 112.161 190.193 112.31 189.97 112.46C189.746 112.609 189.597 112.684 189.373 112.684C189.149 112.758 188.926 112.758 188.627 112.758C187.956 112.833 187.584 112.758 187.211 112.534Z" fill="white"/>
<path d="M195.039 112.011V112.683H194.293V105.51H195.039V108.723C195.411 108.05 196.008 107.751 196.679 107.751C197.275 107.751 197.797 107.976 198.17 108.424C198.543 108.872 198.692 109.47 198.692 110.143C198.692 110.965 198.468 111.637 198.095 112.085C197.723 112.609 197.126 112.833 196.455 112.833C195.859 112.833 195.337 112.534 195.039 112.011ZM195.039 110.068V110.74C195.039 111.114 195.188 111.488 195.411 111.787C195.635 112.085 196.008 112.235 196.381 112.235C196.828 112.235 197.201 112.085 197.499 111.712C197.797 111.338 197.872 110.815 197.872 110.217C197.872 109.694 197.723 109.246 197.499 108.947C197.275 108.648 196.902 108.499 196.455 108.499C196.008 108.499 195.635 108.648 195.337 108.947C195.039 109.246 195.039 109.62 195.039 110.068Z" fill="white"/>
<path d="M200.707 112.757H199.961V105.584H200.707V112.757Z" fill="white"/>
<path d="M204.284 112.833C203.539 112.833 203.017 112.609 202.569 112.161C202.122 111.712 201.898 111.115 201.898 110.367C201.898 109.545 202.122 108.948 202.569 108.424C203.017 107.976 203.613 107.752 204.359 107.752C205.104 107.752 205.626 107.976 206.074 108.424C206.521 108.873 206.67 109.471 206.67 110.293C206.67 111.04 206.446 111.712 205.999 112.161C205.552 112.609 205.03 112.833 204.284 112.833ZM204.359 108.424C203.837 108.424 203.464 108.574 203.166 108.948C202.868 109.321 202.719 109.769 202.719 110.367C202.719 110.965 202.868 111.413 203.166 111.712C203.464 112.011 203.837 112.235 204.359 112.235C204.881 112.235 205.254 112.086 205.552 111.712C205.85 111.413 205.925 110.89 205.925 110.293C205.925 109.695 205.775 109.246 205.552 108.873C205.254 108.574 204.881 108.424 204.359 108.424Z" fill="white"/>
<path d="M212.114 112.31C212.114 114.103 211.294 115 209.579 115C208.982 115 208.46 114.85 208.013 114.626V113.879C208.535 114.178 209.057 114.327 209.579 114.327C210.772 114.327 211.368 113.729 211.368 112.384V111.861C210.995 112.459 210.473 112.758 209.728 112.758C209.131 112.758 208.61 112.534 208.237 112.085C207.864 111.637 207.715 111.039 207.715 110.367C207.715 109.545 207.939 108.872 208.311 108.424C208.684 107.901 209.281 107.677 209.952 107.677C210.623 107.677 211.07 107.976 211.368 108.499V107.826H212.114V112.31ZM211.294 110.516V109.769C211.294 109.395 211.144 109.022 210.921 108.798C210.697 108.499 210.324 108.349 209.952 108.349C209.504 108.349 209.131 108.499 208.833 108.872C208.535 109.246 208.46 109.694 208.46 110.367C208.46 110.89 208.61 111.338 208.833 111.637C209.057 111.936 209.43 112.16 209.877 112.16C210.324 112.16 210.697 112.011 210.921 111.712C211.219 111.413 211.294 111.039 211.294 110.516Z" fill="white"/>
<path d="M273.174 5.4544C256.995 -6.20252 239.326 5.7533 236.045 8.21918C235.747 8.44336 235.299 8.36863 235.001 8.14446C220.388 -6.05307 189.298 -1.56964 185.272 21.2211C181.469 42.5174 206.968 59.3303 223.818 68.596C233.883 74.1256 234.628 80.3277 234.107 83.6155C234.032 84.1386 234.778 84.4375 235.076 83.9891C238.654 78.9826 239.624 72.1081 239.4 66.7279C239.102 57.0138 228.44 58.583 225.607 56.5655C223.072 54.7721 225.234 50.1393 225.756 49.2426C225.831 49.1678 225.831 49.0184 225.756 48.9437C224.563 47.1503 225.831 45.5064 226.204 45.058C226.278 44.9833 226.278 44.9086 226.204 44.8339C225.383 42.9658 226.278 42.4427 226.875 41.6955C227.471 40.9482 228.366 40.3504 227.471 39.379C226.651 38.4076 225.458 37.4362 226.129 36.1659C226.576 35.1945 229.335 34.5967 230.901 33.1022C230.751 33.0275 230.602 32.9528 230.453 32.8781C230.23 32.7286 230.006 32.5792 229.857 32.355C229.708 32.1308 229.559 31.9814 229.409 31.7572C229.559 31.9814 229.708 32.1308 229.931 32.2803C230.155 32.4297 230.304 32.5792 230.528 32.6539C230.751 32.7286 230.975 32.8033 231.199 32.8033C231.572 32.355 231.87 31.8319 231.944 31.2341C232.392 27.7221 233.212 23.3134 235.449 19.5025C237.685 15.6916 240.295 13.0762 245.29 23.9112C249.316 32.7286 255.057 35.6428 257.145 36.4648C257.592 36.6142 257.741 37.1373 257.592 37.5109C251.702 53.1282 256.026 64.4862 257.741 67.9982C258.039 68.596 258.785 68.8949 259.456 68.5213C273.323 60.8995 280.332 49.0931 280.332 49.0931C286.967 39.6779 291.068 18.3069 273.174 5.4544Z" fill="white"/>
</g>
<defs>
<clipPath id="clip0_22_8296">
<rect width="286" height="115" fill="white"/>
</clipPath>
</defs>
</svg>
